<svg width="319" height="319" viewBox="0 0 319 319" fill="none" xmlns="http://www.w3.org/2000/svg">
<path d="M299 10L178 100L200.376 46.9012L299 10Z" fill="#E2761B" stroke="#E2761B" stroke-linecap="round" stroke-linejoin="round"/>
<path d="M19.8881 10.2852L139.644 100.8L118.411 47.0492L19.8881 10.2852Z" fill="#E4761B" stroke="#E4761B" stroke-linecap="round" stroke-linejoin="round"/>
<path d="M255.153 218.129L223 267.39L291.796 286.318L311.573 219.221L255.153 218.129Z" fill="#E4761B" stroke="#E4761B" stroke-linecap="round" stroke-linejoin="round"/>
<path d="M7.14807 219.221L26.8041 286.318L95.6 267.39L63.4467 218.129L7.14807 219.221Z" fill="#E4761B" stroke="#E4761B" stroke-linecap="round" stroke-linejoin="round"/>
<path d="M91.7174 134.894L72.5468 163.893L140.857 166.926L138.431 93.5195L91.7174 134.894Z" fill="#E4761B" stroke="#E4761B" stroke-linecap="round" stroke-linejoin="round"/>
<path d="M226.761 134.895L179.441 92.6709L177.864 166.927L246.053 163.894L226.761 134.895Z" fill="#E4761B" stroke="#E4761B" stroke-linecap="round" stroke-linejoin="round"/>
<path d="M95.6001 267.39L136.611 247.37L101.181 219.706L95.6001 267.39Z" fill="#E4761B" stroke="#E4761B" stroke-linecap="round" stroke-linejoin="round"/>
<path d="M181.868 247.37L223 267.39L217.297 219.706L181.868 247.37Z" fill="#E4761B" stroke="#E4761B" stroke-linecap="round" stroke-linejoin="round"/>
<path d="M223 267.391L181.868 247.371L185.144 274.186L184.78 285.47L223 267.391Z" fill="#D7C1B3" stroke="#D7C1B3" stroke-linecap="round" stroke-linejoin="round"/>
<path d="M95.6001 267.391L133.82 285.47L133.577 274.186L136.611 247.371L95.6001 267.391Z" fill="#D7C1B3" stroke="#D7C1B3" stroke-linecap="round" stroke-linejoin="round"/>
<path d="M135 202L101 191.983L124.993 181L135 202Z" fill="#233447" stroke="#233447" stroke-linecap="round" stroke-linejoin="round"/>
<path d="M184 202L193.972 181L218 191.983L184 202Z" fill="#233447" stroke="#233447" stroke-linecap="round" stroke-linejoin="round"/>
<path d="M95.6001 267.39L101.424 218.129L63.4468 219.221L95.6001 267.39Z" fill="#CD6116" stroke="#CD6116" stroke-linecap="round" stroke-linejoin="round"/>
<path d="M217.176 218.129L223 267.39L255.153 219.221L217.176 218.129Z" fill="#CD6116" stroke="#CD6116" stroke-linecap="round" stroke-linejoin="round"/>
<path d="M246.054 163.893L177.864 166.926L184.174 201.991L194.244 180.879L218.511 191.921L246.054 163.893Z" fill="#CD6116" stroke="#CD6116" stroke-linecap="round" stroke-linejoin="round"/>
<path d="M100.211 191.921L124.477 180.879L134.427 201.991L140.857 166.926L72.5468 163.893L100.211 191.921Z" fill="#CD6116" stroke="#CD6116" stroke-linecap="round" stroke-linejoin="round"/>
<path d="M72.5468 163.893L101.181 219.706L100.211 191.921L72.5468 163.893Z" fill="#E4751F" stroke="#E4751F" stroke-linecap="round" stroke-linejoin="round"/>
<path d="M218.511 191.921L217.297 219.706L246.053 163.893L218.511 191.921Z" fill="#E4751F" stroke="#E4751F" stroke-linecap="round" stroke-linejoin="round"/>
<path d="M140.857 166.927L134.427 201.992L142.435 243.367L144.255 188.888L140.857 166.927Z" fill="#E4751F" stroke="#E4751F" stroke-linecap="round" stroke-linejoin="round"/>
<path d="M177.864 166.927L174.588 188.767L176.044 243.367L184.173 201.992L177.864 166.927Z" fill="#E4751F" stroke="#E4751F" stroke-linecap="round" stroke-linejoin="round"/>
<path d="M184.04 201.989L176 243.028L181.76 247L216.8 219.56L218 192L184.04 201.989Z" fill="#F6851B" stroke="#F6851B" stroke-linecap="round" stroke-linejoin="round"/>
<path d="M101 192L101.966 219.56L137.207 247L143 243.028L135.034 201.989L101 192Z" fill="#F6851B" stroke="#F6851B" stroke-linecap="round" stroke-linejoin="round"/>
<path d="M184.9 285.637L185.263 274.629L182.239 272.025H136.64L133.858 274.629L134.1 285.637L96 268L109.305 278.653L136.277 297H182.602L209.695 278.653L223 268L184.9 285.637Z" fill="#C0AD9E" stroke="#C0AD9E" stroke-linecap="round" stroke-linejoin="round"/>
<path d="M181.76 247.157L176 243H142.76L137 247.157L134 275L136.76 272.228H182L185 275L181.76 247.157Z" fill="#161616" stroke="#161616" stroke-linecap="round" stroke-linejoin="round"/>
<path d="M303.687 105.774L314 56.2705L298.591 10.2852L181.868 96.9171L226.761 134.894L290.219 153.458L304.293 137.078L298.227 132.71L307.933 123.853L300.411 118.029L310.117 110.628L303.687 105.774Z" fill="#763D16" stroke="#763D16" stroke-linecap="round" stroke-linejoin="round"/>
<path d="M4.6001 56.2705L14.9134 105.774L8.36143 110.628L18.0681 118.029L10.6668 123.853L20.3734 132.71L14.3068 137.078L28.2601 153.458L91.7174 134.894L136.611 96.9171L19.8881 10.2852L4.6001 56.2705Z" fill="#763D16" stroke="#763D16" stroke-linecap="round" stroke-linejoin="round"/>
<path d="M290.481 153.386L226.537 135L245.977 163.721L217 219L255.147 218.519H312L290.481 153.386Z" fill="#F6851B" stroke="#F6851B" stroke-linecap="round" stroke-linejoin="round"/>
<path d="M91.5394 135L28.1045 153.386L7 218.519H63.2787L101 219L72.3755 163.721L91.5394 135Z" fill="#F6851B" stroke="#F6851B" stroke-linecap="round" stroke-linejoin="round"/>
<path d="M177.8 166.684L181.76 96.7874L200 47H119L137 96.7874L141.2 166.684L142.64 188.731L142.76 243H176L176.24 188.731L177.8 166.684Z" fill="#F6851B" stroke="#F6851B" stroke-linecap="round" stroke-linejoin="round"/>
</svg>
